<svg width="53" height="44" viewBox="0 0 53 44" fill="none" xmlns="http://www.w3.org/2000/svg">
<path d="M34.9219 0.304688C36.8555 0.304917 38.4277 1.89741 38.4277 3.85547V6.20117C38.4279 7.04011 39.1023 7.72266 39.9307 7.72266H45.335C49.2022 7.72266 52.3477 10.9087 52.3477 14.8252V35.9854C52.3475 39.9012 49.2021 43.0869 45.335 43.0869H7.18652C3.31986 43.0869 0.173954 39.9012 0.173828 35.9854V14.8252C0.173828 10.9087 3.31978 7.72266 7.18652 7.72266H12.5908C13.4191 7.72266 14.0936 7.04011 14.0938 6.20117V3.85547C14.0938 1.89732 15.6668 0.304771 17.5996 0.304688H34.9219ZM17.5996 2.33398C16.7713 2.33407 16.0967 3.01645 16.0967 3.85547V6.20117C16.0965 8.15924 14.5236 9.75195 12.5908 9.75195H7.18652C4.42471 9.75195 2.17676 12.0279 2.17676 14.8252V35.9854C2.17688 38.7821 4.42479 41.0586 7.18652 41.0586H45.335C48.0972 41.0586 50.3446 38.7821 50.3447 35.9854V14.8252C50.3447 12.0279 48.0973 9.75195 45.335 9.75195H39.9307C37.9979 9.75195 36.425 8.15924 36.4248 6.20117V3.85547C36.4248 3.01654 35.7506 2.33421 34.9219 2.33398H17.5996ZM26.2676 14.8877C31.8944 14.8877 36.4727 19.5093 36.4727 25.1904C36.4726 30.872 31.8943 35.4932 26.2676 35.4932C20.6404 35.493 16.0626 30.8719 16.0625 25.1904C16.0625 19.5093 20.6404 14.8878 26.2676 14.8877ZM26.2676 16.9102C21.7448 16.9103 18.0664 20.6248 18.0664 25.1904C18.0665 29.7564 21.7449 33.4706 26.2676 33.4707C30.7904 33.4707 34.4687 29.7565 34.4688 25.1904C34.4688 20.6248 30.7905 16.9102 26.2676 16.9102ZM26.2549 18.9082C26.8078 18.9083 27.2568 19.3617 27.2568 19.9199C27.2566 20.4779 26.8076 20.9306 26.2549 20.9307C23.9248 20.9307 22.0283 22.8449 22.0283 25.1973C22.0283 26.1044 22.3066 26.9701 22.832 27.7002C23.157 28.1528 23.0576 28.7851 22.6094 29.1133C22.4321 29.2431 22.2262 29.3056 22.0225 29.3057C21.7124 29.3057 21.4063 29.1607 21.2109 28.8887C20.4352 27.8102 20.0254 26.5336 20.0254 25.1973C20.0254 21.7299 22.8199 18.9082 26.2549 18.9082ZM45.2285 11.6133C46.679 11.6133 47.8584 12.8041 47.8584 14.2686C47.8582 15.7317 46.6789 16.9229 45.2285 16.9229H41.8477C40.3983 16.9228 39.219 15.7317 39.2188 14.2686C39.2188 12.8042 40.3982 11.6134 41.8477 11.6133H45.2285ZM41.8477 13.6357C41.5026 13.6358 41.2217 13.9197 41.2217 14.2686C41.2219 14.6167 41.5028 14.9003 41.8477 14.9004H45.2285C45.574 14.9004 45.8552 14.6168 45.8555 14.2686C45.8555 13.9196 45.5741 13.6357 45.2285 13.6357H41.8477Z" fill="black" fill-opacity="0.4"/>
</svg>