<svg width="20" height="20" viewBox="0 0 20 20" fill="none" xmlns="http://www.w3.org/2000/svg">
<path d="M14.32 14.455C13.0768 15.4323 11.563 15.9736 10 16C4.90909 16 2 10 2 10C2.90465 8.26143 4.15937 6.74247 5.68 5.54502M8.47273 4.18002C8.97333 4.05918 9.48586 3.99877 10 4.00002C15.0909 4.00002 18 10 18 10C17.5585 10.8517 17.032 11.6536 16.4291 12.3925M11.5418 11.59C11.3421 11.8111 11.1012 11.9884 10.8336 12.1113C10.5659 12.2343 10.277 12.3005 9.98407 12.3058C9.69111 12.3111 9.40012 12.2555 9.12844 12.1424C8.85677 12.0292 8.60998 11.8608 8.4028 11.6471C8.19562 11.4335 8.03229 11.179 7.92255 10.8988C7.81282 10.6186 7.75893 10.3185 7.7641 10.0164C7.76927 9.71433 7.83339 9.41639 7.95264 9.1404C8.07189 8.8644 8.24382 8.616 8.45818 8.41001" stroke="#939292" stroke-width="2" stroke-linecap="round" stroke-linejoin="round"/>
<path d="M2 2L18 18" stroke="#939292" stroke-width="2" stroke-linecap="round" stroke-linejoin="round"/>
</svg>
