<svg width="20" height="20" viewBox="0 0 20 20" fill="none" xmlns="http://www.w3.org/2000/svg">
<path d="M0.833008 3.33325V8.33325H5.83301" stroke="black" stroke-width="1.5" stroke-linecap="round" stroke-linejoin="round"/>
<path d="M19.167 16.6667V11.6667H14.167" stroke="black" stroke-width="1.5" stroke-linecap="round" stroke-linejoin="round"/>
<path d="M17.0747 7.5012C16.652 6.30686 15.9337 5.23904 14.9868 4.39738C14.0398 3.55573 12.8951 2.96767 11.6594 2.68808C10.4238 2.40849 9.13738 2.44649 7.92035 2.79851C6.70332 3.15054 5.5953 3.80513 4.69967 4.7012L0.833008 8.33454M19.1663 11.6679L15.2997 15.3012C14.4041 16.1973 13.296 16.8519 12.079 17.2039C10.862 17.5559 9.5756 17.5939 8.33991 17.3143C7.10423 17.0347 5.95951 16.4467 5.01256 15.605C4.06562 14.7634 3.34731 13.6955 2.92467 12.5012" stroke="black" stroke-width="1.5" stroke-linecap="round" stroke-linejoin="round"/>
</svg>
