<svg width="20" height="20" viewBox="0 0 20 20" fill="none" xmlns="http://www.w3.org/2000/svg">
<path d="M15.833 1.75C17.1677 1.75 18.25 2.8323 18.25 4.16699V15.833C18.25 17.1677 17.1677 18.25 15.833 18.25H4.16699C2.8323 18.25 1.75 17.1677 1.75 15.833V4.16699C1.75 2.8323 2.8323 1.75 4.16699 1.75H15.833ZM13.5 6.66699V16.667C13.5 16.695 13.4984 16.7226 13.4961 16.75H15.833C16.3393 16.75 16.75 16.3393 16.75 15.833V6.58301H13.4961C13.4984 6.6106 13.5 6.63881 13.5 6.66699ZM3.25 15.833C3.25 16.3393 3.66073 16.75 4.16699 16.75H11.5039C11.5016 16.7226 11.5 16.695 11.5 16.667V6.66699C11.5 6.63881 11.5016 6.6106 11.5039 6.58301H3.25V15.833ZM4.16699 3.25C3.66073 3.25 3.25 3.66073 3.25 4.16699V5.08301H16.75V4.16699C16.75 3.66073 16.3393 3.25 15.833 3.25H4.16699Z" fill="black"/>
</svg>
