<svg width="20" height="20" viewBox="0 0 20 20" fill="none" xmlns="http://www.w3.org/2000/svg">
<path d="M13.7177 7.37316L12.8094 13.189C12.7968 13.2692 12.7646 13.345 12.7155 13.4096C12.6665 13.4743 12.6021 13.5257 12.5282 13.5593C12.4544 13.593 12.3733 13.6077 12.2924 13.6023C12.2114 13.5968 12.133 13.5714 12.0644 13.5282L9.02269 11.6223C8.95947 11.5828 8.90611 11.5293 8.86667 11.466C8.82724 11.4027 8.80278 11.3313 8.79514 11.2571C8.78751 11.1829 8.7969 11.108 8.82262 11.038C8.84833 10.968 8.88968 10.9048 8.94352 10.8532L11.4685 8.43316C11.4969 8.4065 11.4635 8.36233 11.4302 8.38233L7.77018 10.5723C7.55264 10.7031 7.2943 10.7486 7.04518 10.6998L5.72018 10.444C5.24185 10.3515 5.17602 9.69483 5.62518 9.509L12.7102 6.57983C12.8309 6.52961 12.9628 6.5125 13.0923 6.53024C13.2218 6.54799 13.3443 6.59996 13.447 6.68079C13.5497 6.76163 13.6291 6.8684 13.6768 6.9901C13.7245 7.11181 13.7389 7.24404 13.7185 7.37316" fill="black"/>
<path fill-rule="evenodd" clip-rule="evenodd" d="M10.0012 1.42261C5.26368 1.42261 1.42285 5.26344 1.42285 10.0009C1.42285 14.7384 5.26368 18.5793 10.0012 18.5793C14.7387 18.5793 18.5795 14.7384 18.5795 10.0009C18.5795 5.26344 14.7387 1.42261 10.0012 1.42261ZM2.89285 10.0009C2.89285 9.06746 3.07671 8.14312 3.43394 7.2807C3.79117 6.41828 4.31476 5.63466 4.97483 4.97459C5.6349 4.31452 6.41852 3.79092 7.28094 3.4337C8.14337 3.07647 9.0677 2.89261 10.0012 2.89261C10.9347 2.89261 11.859 3.07647 12.7214 3.4337C13.5838 3.79092 14.3675 4.31452 15.0275 4.97459C15.6876 5.63466 16.2112 6.41828 16.5684 7.2807C16.9257 8.14312 17.1095 9.06746 17.1095 10.0009C17.1095 11.8862 16.3606 13.6942 15.0275 15.0273C13.6945 16.3604 11.8864 17.1093 10.0012 17.1093C8.11594 17.1093 6.30791 16.3604 4.97483 15.0273C3.64176 13.6942 2.89285 11.8862 2.89285 10.0009Z" fill="black"/>
</svg>
