<svg width="36" height="36" viewBox="0 0 36 36" fill="none" xmlns="http://www.w3.org/2000/svg">
<rect width="36" height="36" rx="6" fill="#F5F4F4"/>
<path d="M27 19C27.5523 19 28 19.4477 28 20V24C28 24.7957 27.6837 25.5585 27.1211 26.1211C26.5585 26.6837 25.7957 27 25 27H11C10.2044 27 9.44152 26.6837 8.87891 26.1211C8.3163 25.5585 8 24.7957 8 24V20C8 19.4477 8.44772 19 9 19C9.55228 19 10 19.4477 10 20V24L10.0049 24.0986C10.0276 24.3276 10.1288 24.5429 10.293 24.707C10.4805 24.8946 10.7348 25 11 25H25C25.2652 25 25.5195 24.8946 25.707 24.707C25.8946 24.5195 26 24.2652 26 24V20C26 19.4477 26.4477 19 27 19ZM18 7C18.5523 7 19 7.44772 19 8V17.5859L22.293 14.293C22.6835 13.9024 23.3165 13.9024 23.707 14.293C24.0976 14.6835 24.0976 15.3165 23.707 15.707L18.707 20.707C18.6592 20.7548 18.6065 20.7976 18.5498 20.835C18.5121 20.8599 18.4727 20.8811 18.4326 20.9004C18.3874 20.9222 18.3407 20.9412 18.292 20.9561C18.2717 20.9622 18.251 20.9668 18.2305 20.9717C18.2191 20.9744 18.2078 20.9772 18.1963 20.9795C18.1859 20.9816 18.1754 20.9826 18.165 20.9844C18.1112 20.9933 18.0563 21 18 21C17.9433 21 17.8881 20.9934 17.834 20.9844C17.8236 20.9826 17.8131 20.9816 17.8027 20.9795C17.7912 20.9772 17.7799 20.9744 17.7686 20.9717C17.748 20.9668 17.7273 20.9623 17.707 20.9561C17.6584 20.9412 17.6116 20.9222 17.5664 20.9004C17.5266 20.8812 17.4877 20.8597 17.4502 20.835C17.3935 20.7976 17.3408 20.7548 17.293 20.707L12.293 15.707C11.9024 15.3165 11.9024 14.6835 12.293 14.293C12.6835 13.9024 13.3165 13.9024 13.707 14.293L17 17.5859V8C17 7.44772 17.4477 7 18 7Z" fill="black" fill-opacity="0.35"/>
</svg>
