<svg width="24" height="24" viewBox="0 0 24 24" fill="none" xmlns="http://www.w3.org/2000/svg">
<path d="M19.9397 19.4603L19.4554 18.976L19.8938 18.4499C21.4331 16.6027 22.25 14.3521 22.25 12C22.25 6.36421 17.6358 1.75 12 1.75C6.36421 1.75 1.75 6.36421 1.75 12C1.75 17.6358 6.36421 22.25 12 22.25H21.9C21.9775 22.25 22.0085 22.238 22.0216 22.2321C22.038 22.2249 22.0739 22.2054 22.1397 22.1397C22.2868 21.9926 22.2868 21.8074 22.1397 21.6603L19.9397 19.4603Z" stroke="#232E34" stroke-width="1.5"/>
<path d="M10.0841 9.06303L10.0854 9.05071C10.1374 8.56109 10.3751 8.11001 10.7495 7.79024C11.1239 7.47048 11.6066 7.30634 12.0983 7.33159C12.5901 7.35683 13.0534 7.56955 13.3931 7.92598C13.7328 8.28241 13.923 8.75546 13.9246 9.24783L13.9246 9.24961C13.9246 9.59698 13.8805 9.90886 13.7245 10.2284C13.5773 10.53 13.3484 10.7996 13.0603 11.0973L13.0578 11.0999L13.0578 11.0999L12.7253 11.439C12.3289 11.8514 12.0887 12.1696 11.941 12.4895C11.797 12.8015 11.7246 13.1514 11.7246 13.6496C11.7246 13.7225 11.7536 13.7925 11.8052 13.8441C11.8567 13.8956 11.9267 13.9246 11.9996 13.9246C12.0725 13.9246 12.1425 13.8956 12.1941 13.8441C12.2456 13.7925 12.2746 13.7225 12.2746 13.6496C12.2746 13.3022 12.3187 12.9904 12.4747 12.6708C12.6219 12.3692 12.8508 12.0996 13.1389 11.8019L13.1414 11.7993L13.1414 11.7993L13.4739 11.4603C13.8703 11.0478 14.1106 10.7296 14.2582 10.4097C14.4022 10.0977 14.4746 9.74779 14.4746 9.24961C14.4746 8.5932 14.2139 7.96367 13.7497 7.49952C13.2855 7.03537 12.656 6.77461 11.9996 6.77461C11.3432 6.77461 10.7137 7.03537 10.2495 7.49952C9.78541 7.96363 9.52465 8.59309 9.52461 9.24944L10.0841 9.06303ZM10.0841 9.06303L10.0833 9.07539L10.0695 9.30194M10.0841 9.06303L10.0695 9.30194M10.0695 9.30194C10.0573 9.36499 10.0232 9.42194 9.97315 9.46268C9.9191 9.50665 9.85038 9.52847 9.78087 9.52372C9.71135 9.51897 9.64623 9.48801 9.59867 9.4371C9.55114 9.38623 9.52467 9.31922 9.52461 9.24961L10.0695 9.30194ZM11.6107 16.5607C11.7138 16.4576 11.8537 16.3996 11.9996 16.3996C12.1455 16.3996 12.2854 16.4576 12.3885 16.5607C12.4917 16.6638 12.5496 16.8037 12.5496 16.9496C12.5496 17.0955 12.4917 17.2354 12.3885 17.3385C12.2854 17.4417 12.1455 17.4996 11.9996 17.4996C11.8537 17.4996 11.7138 17.4417 11.6107 17.3385C11.5076 17.2354 11.4496 17.0955 11.4496 16.9496C11.4496 16.8037 11.5076 16.6638 11.6107 16.5607Z" fill="#232E34" stroke="#232E34" stroke-width="1.1"/>
</svg>
