<svg width="24" height="24" viewBox="0 0 24 24" fill="none" xmlns="http://www.w3.org/2000/svg">
<path d="M3 18.0816H2.25H3ZM7.64286 13.3878V12.6378V13.3878ZM16.9286 13.3878V12.6378V13.3878ZM3.75 18.0816C3.75 17.033 4.16211 16.029 4.89308 15.29L3.82664 14.2351C2.81621 15.2567 2.25 16.6405 2.25 18.0816H3.75ZM4.89308 15.29C5.62378 14.5513 6.61307 14.1378 7.64286 14.1378V12.6378C6.20992 12.6378 4.83735 13.2133 3.82664 14.2351L4.89308 15.29ZM7.64286 14.1378H16.9286V12.6378H7.64286V14.1378ZM16.9286 14.1378C17.9584 14.1378 18.9476 14.5513 19.6783 15.29L20.7448 14.2351C19.7341 13.2133 18.3615 12.6378 16.9286 12.6378V14.1378ZM19.6783 15.29C20.4093 16.029 20.8214 17.033 20.8214 18.0816H22.3214C22.3214 16.6405 21.7552 15.2567 20.7448 14.2351L19.6783 15.29ZM20.8214 18.0816C20.8214 18.5078 20.6539 18.9149 20.3583 19.2137L21.4247 20.2686C21.9998 19.6872 22.3214 18.9004 22.3214 18.0816H20.8214ZM20.3583 19.2137C20.0629 19.5123 19.6641 19.6786 19.25 19.6786V21.1786C20.0673 21.1786 20.8494 20.8503 21.4247 20.2686L20.3583 19.2137ZM19.25 19.6786H5.32143V21.1786H19.25V19.6786ZM5.32143 19.6786C4.90732 19.6786 4.5085 19.5123 4.21315 19.2137L3.14671 20.2686C3.72207 20.8503 4.50417 21.1786 5.32143 21.1786V19.6786ZM4.21315 19.2137C3.91753 18.9149 3.75 18.5078 3.75 18.0816H2.25C2.25 18.9004 2.57163 19.6872 3.14671 20.2686L4.21315 19.2137ZM15.0179 7.52041C15.0179 9.05821 13.7869 10.2908 12.2857 10.2908V11.7908C14.6308 11.7908 16.5179 9.87114 16.5179 7.52041H15.0179ZM12.2857 10.2908C10.7845 10.2908 9.55357 9.05821 9.55357 7.52041H8.05357C8.05357 9.87114 9.94066 11.7908 12.2857 11.7908V10.2908ZM9.55357 7.52041C9.55357 5.9826 10.7845 4.75 12.2857 4.75V3.25C9.94066 3.25 8.05357 5.16968 8.05357 7.52041H9.55357ZM12.2857 4.75C13.7869 4.75 15.0179 5.9826 15.0179 7.52041H16.5179C16.5179 5.16968 14.6308 3.25 12.2857 3.25V4.75Z" fill="#252529"/>
</svg>
