<svg width="20" height="22" viewBox="0 0 20 22" fill="none" xmlns="http://www.w3.org/2000/svg">
<path d="M9.38574 0.210498C9.74678 -0.0701661 10.2532 -0.0701661 10.6143 0.210498L19.6143 7.2105C19.8575 7.39988 19.9999 7.69126 20 7.99956V18.9996C20 19.7951 19.6836 20.5581 19.1211 21.1207C18.5585 21.6833 17.7957 21.9996 17 21.9996H3C2.20435 21.9996 1.44152 21.6833 0.878906 21.1207C0.316421 20.5581 0 19.7951 0 18.9996V7.99956C0.000122124 7.69126 0.142466 7.39988 0.385742 7.2105L9.38574 0.210498ZM2 8.48784V18.9996C2 19.2647 2.10556 19.5191 2.29297 19.7066C2.48051 19.8941 2.73478 19.9996 3 19.9996H6V10.9996C6.00021 10.4475 6.44785 9.99956 7 9.99956H13C13.5522 9.99956 13.9998 10.4475 14 10.9996V19.9996H17C17.2652 19.9996 17.5195 19.8941 17.707 19.7066C17.8944 19.5191 18 19.2647 18 18.9996V8.48784L10 2.26616L2 8.48784ZM8 19.9996H12V11.9996H8V19.9996Z" fill="black"/>
</svg>